<svg viewBox="0 0 25 25" fill="currentColor" width="32" height="32" xmlns="http://www.w3.org/2000/svg" xmlns:xlink="http://www.w3.org/1999/xlink">
    <style>
        :root, .palette0 {color: currentColor;
            --color0: currentColor;
        }
    </style>
    <path d="M1.2856 25c-0.3294 0-0.6587-0.1253-0.9089-0.3773-0.5023-0.5023-0.5023-1.3167 0-1.8189L22.8043 0.3767c0.5023-0.5023 1.3167-0.5023 1.819 0 0.5023 0.5023 0.5023 1.3166 0 1.8192L2.196 24.6227C1.9439 24.8732 1.6146 25 1.2856 25z" />
    <path d="M23.7147 25c-0.3293 0-0.6583-0.1253-0.9088-0.3773L0.3767 2.1959c-0.5023-0.5026-0.5023-1.3169 0-1.8192 0.5023-0.5023 1.3167-0.5023 1.8193 0l22.4273 22.4271c0.5023 0.5022 0.5023 1.3166 0 1.8189C24.3712 24.8732 24.0422 25 23.7147 25z" />
</svg>