<svg viewBox="0 0 12 12" fill="#939393" width="32" height="32" xmlns="http://www.w3.org/2000/svg" xmlns:xlink="http://www.w3.org/1999/xlink">
    <style>
        :root, .palette0 {color: currentColor;
            --color0: currentColor;
        }
    </style>
    <path fill="currentColor" d="M1.509 1.5091C2.4821 0.5359 3.776 0 5.1521 0c1.3762 0 2.67 0.5359 3.6431 1.5091 0.9731 0.973 1.5091 2.2669 1.5091 3.643 0 1.2582-0.4482 2.4474-1.2687 3.3858l2.8613 2.8613c0.1374 0.1374 0.1374 0.3603 0 0.4977C11.8282 11.9656 11.7381 12 11.648 12c-0.09 0-0.1801-0.0344-0.2488-0.1031L8.5379 9.0356c-0.9384 0.8205-2.1276 1.2687-3.3858 1.2687-1.3762 0-2.67-0.5359-3.6431-1.5091C0.5359 7.8222 0 6.5283 0 5.1522 0 3.776 0.5359 2.4822 1.509 1.5091zM2.0067 8.2976c1.7344 1.7343 4.5564 1.7343 6.2908-1e-4 1.7344-1.7343 1.7344-4.5564 0-6.2907C7.4302 1.1395 6.2914 0.706 5.1521 0.706c-1.139 0-2.2783 0.4337-3.1454 1.3008-1.7343 1.7343-1.7343 4.5564 0 6.2907z" />
</svg>